<svg width="191" height="191" viewBox="0 0 191 191" fill="none" xmlns="http://www.w3.org/2000/svg">
<circle cx="73.5" cy="62.5" r="62.5" fill="#FDE68A"/>
<path d="M90.2495 108.143H100.416V53.2022H90.2495V108.143ZM95.3328 129.94C97.1086 129.94 98.5929 129.34 99.7858 128.141C100.985 126.941 101.585 125.453 101.585 123.677C101.585 121.908 100.985 120.424 99.7858 119.224C98.5929 118.025 97.1086 117.425 95.3328 117.425C93.557 117.425 92.0727 118.025 90.8798 119.224C89.6802 120.424 89.0803 121.908 89.0803 123.677C89.0803 125.453 89.6802 126.941 90.8798 128.141C92.0727 129.34 93.557 129.94 95.3328 129.94ZM95.3328 190.666L0 95.3328L95.3328 0L190.666 95.3328L95.3328 190.666ZM95.3328 176.666L176.666 95.3328L95.3328 13.9995L13.9995 95.3328L95.3328 176.666Z" fill="black"/>
</svg>
