<svg width="20" height="20" viewBox="0 0 20 20" fill="none" xmlns="http://www.w3.org/2000/svg">
<path d="M14.3479 14.849C14.1228 15.074 13.8176 15.2004 13.4994 15.2004C13.1811 15.2004 12.8759 15.074 12.6509 14.849L9.99989 11.819L7.34889 14.848C7.23779 14.9609 7.10544 15.0507 6.95946 15.1122C6.81349 15.1738 6.65677 15.2058 6.49837 15.2064C6.33996 15.207 6.18299 15.1763 6.03652 15.116C5.89004 15.0557 5.75696 14.9669 5.64495 14.8549C5.53294 14.7429 5.44421 14.6098 5.38389 14.4634C5.32357 14.3169 5.29285 14.1599 5.29349 14.0015C5.29414 13.8431 5.32614 13.6864 5.38765 13.5404C5.44916 13.3944 5.53897 13.2621 5.65189 13.151L8.40989 10.001L5.65089 6.849C5.53797 6.7379 5.44816 6.60555 5.38665 6.45957C5.32514 6.31359 5.29314 6.15688 5.29249 5.99847C5.29185 5.84007 5.32257 5.6831 5.38289 5.53662C5.44321 5.39015 5.53194 5.25707 5.64395 5.14506C5.75596 5.03305 5.88905 4.94432 6.03552 4.884C6.18199 4.82368 6.33896 4.79295 6.49737 4.7936C6.65577 4.79424 6.81249 4.82624 6.95846 4.88776C7.10444 4.94927 7.23679 5.03908 7.34789 5.152L9.99989 8.183L12.6509 5.152C12.762 5.03908 12.8943 4.94927 13.0403 4.88776C13.1863 4.82624 13.343 4.79424 13.5014 4.7936C13.6598 4.79295 13.8168 4.82368 13.9633 4.884C14.1097 4.94432 14.2428 5.03305 14.3548 5.14506C14.4668 5.25707 14.5556 5.39015 14.6159 5.53662C14.6762 5.6831 14.7069 5.84007 14.7063 5.99847C14.7056 6.15688 14.6736 6.31359 14.6121 6.45957C14.5506 6.60555 14.4608 6.7379 14.3479 6.849L11.5899 10.001L14.3479 13.151C14.4595 13.2624 14.548 13.3948 14.6084 13.5405C14.6688 13.6861 14.6998 13.8423 14.6998 14C14.6998 14.1577 14.6688 14.3138 14.6084 14.4595C14.548 14.6052 14.4595 14.7375 14.3479 14.849Z" fill="black"/>
</svg>
