<svg width="18" height="18" viewBox="0 0 18 18" fill="none" xmlns="http://www.w3.org/2000/svg">
<path d="M7.32062 8.42938C7.76602 8.87478 8.37011 9.125 9 9.125C9.31189 9.125 9.62072 9.06357 9.90887 8.94421C10.197 8.82486 10.4588 8.64992 10.6794 8.42938C10.8999 8.20884 11.0749 7.94702 11.1942 7.65887C11.3136 7.37072 11.375 7.06189 11.375 6.75C11.375 6.12011 11.1248 5.51602 10.6794 5.07062C10.234 4.62522 9.62989 4.375 9 4.375C8.37011 4.375 7.76602 4.62522 7.32062 5.07062C6.87522 5.51602 6.625 6.12011 6.625 6.75C6.625 7.37989 6.87522 7.98398 7.32062 8.42938ZM9 15.7367C8.87909 15.5939 8.73293 15.4185 8.56792 15.2152C8.08217 14.6167 7.43533 13.7792 6.78948 12.8219C6.14267 11.8632 5.50303 10.7936 5.02661 9.73015C4.54726 8.66016 4.25 7.63321 4.25 6.75C4.25 5.49022 4.75045 4.28204 5.64124 3.39124C6.53204 2.50045 7.74022 2 9 2C10.2598 2 11.468 2.50044 12.3588 3.39124C13.2496 4.28204 13.75 5.49022 13.75 6.75C13.75 7.63321 13.4527 8.66016 12.9734 9.73015C12.497 10.7936 11.8573 11.8632 11.2105 12.8219C10.5647 13.7792 9.91783 14.6167 9.43208 15.2152C9.26707 15.4185 9.1209 15.5939 9 15.7367Z" stroke="#666666"/>
</svg>
