<svg width="198" height="147" viewBox="0 0 198 147" fill="none" xmlns="http://www.w3.org/2000/svg">
<circle cx="73.5" cy="73.5" r="73.5" fill="#FDE68A"/>
<path d="M43.2079 131.833C38.8762 131.833 35.2603 130.383 32.3599 127.483C29.4533 124.576 28 120.957 28 116.625V15.2079C28 10.8762 29.4533 7.26025 32.3599 4.35992C35.2603 1.4533 38.8762 0 43.2079 0H182.292C186.624 0 190.24 1.4533 193.14 4.35992C196.047 7.26025 197.5 10.8762 197.5 15.2079V116.625C197.5 120.957 196.05 124.573 193.15 127.473C190.243 130.38 186.624 131.833 182.292 131.833H43.2079ZM112.75 66.9996L37.4167 17.7504V116.625C37.4167 118.314 37.9597 119.702 39.0457 120.788C40.1318 121.874 41.5192 122.417 43.2079 122.417H182.292C183.981 122.417 185.368 121.874 186.454 120.788C187.54 119.702 188.083 118.314 188.083 116.625V17.7504L112.75 66.9996ZM112.75 56.5L185.183 9.41667H40.317L112.75 56.5ZM37.4167 17.7504V9.41667V116.625C37.4167 118.314 37.9597 119.702 39.0457 120.788C40.1318 121.874 41.5192 122.417 43.2079 122.417H37.4167V17.7504Z" fill="black"/>
</svg>
