<svg width="18" height="13" viewBox="0 0 18 13" fill="none" xmlns="http://www.w3.org/2000/svg">
<path d="M18 11C18 11.5304 17.7893 12.0391 17.4142 12.4142C17.0391 12.7893 16.5304 13 16 13H2C1.46957 13 0.960859 12.7893 0.585786 12.4142C0.210714 12.0391 0 11.5304 0 11V2C0 1.46957 0.210714 0.960859 0.585786 0.585786C0.960859 0.210714 1.46957 0 2 0H16C16.5304 0 17.0391 0.210714 17.4142 0.585786C17.7893 0.960859 18 1.46957 18 2V11Z" fill="#C60A1D"/>
<path d="M0 3.5H18V9.5H0V3.5Z" fill="#FFC400"/>
<path d="M4.5 6V7.5C4.5 7.89782 4.65804 8.27936 4.93934 8.56066C5.22064 8.84196 5.60218 9 6 9C6.39782 9 6.77936 8.84196 7.06066 8.56066C7.34196 8.27936 7.5 7.89782 7.5 7.5V6H4.5Z" fill="#EA596E"/>
<path d="M6 5.5H7.5V7H6V5.5Z" fill="#F4A2B2"/>
<path d="M4.5 5.5H6V7H4.5V5.5Z" fill="#DD2E44"/>
<path d="M6 5.5C6.82843 5.5 7.5 5.16421 7.5 4.75C7.5 4.33579 6.82843 4 6 4C5.17157 4 4.5 4.33579 4.5 4.75C4.5 5.16421 5.17157 5.5 6 5.5Z" fill="#EA596E"/>
<path d="M6 4.75C6.82843 4.75 7.5 4.58211 7.5 4.375C7.5 4.16789 6.82843 4 6 4C5.17157 4 4.5 4.16789 4.5 4.375C4.5 4.58211 5.17157 4.75 6 4.75Z" fill="#FFAC33"/>
<path d="M3.5 5.5H4V9H3.5V5.5ZM8 5.5H8.5V9H8V5.5Z" fill="#99AAB5"/>
<path d="M3 8.5H4.5V9H3V8.5ZM7.5 8.5H9V9H7.5V8.5ZM3.5 5H4V5.5H3.5V5ZM8 5H8.5V5.5H8V5Z" fill="#66757F"/>
</svg>
