<svg width="190" height="157" viewBox="0 0 190 157" fill="none" xmlns="http://www.w3.org/2000/svg">
<circle cx="73.5" cy="73.5" r="73.5" fill="#FDE68A"/>
<path d="M140.312 1C122.222 1 106.63 9.59781 98.125 23.8403C89.62 9.59781 74.0275 1 55.9375 1C42.9633 1.01563 30.5249 6.17655 21.3507 15.3507C12.1765 24.5249 7.01563 36.9633 7 49.9375C7 74.0603 22.1875 99.2716 52.0563 124.854C65.8474 136.59 80.7382 146.968 96.5219 155.845C97.0144 156.111 97.5653 156.25 98.125 156.25C98.6847 156.25 99.2356 156.111 99.7281 155.845C115.512 146.968 130.403 136.59 144.194 124.854C174.063 99.2716 189.25 74.0603 189.25 49.9375C189.234 36.9633 184.073 24.5249 174.899 15.3507C165.725 6.17655 153.287 1.01563 140.312 1ZM98.125 149.011C86.3125 142.294 13.75 98.9341 13.75 49.9375C13.7634 38.7528 18.2124 28.03 26.1212 20.1212C34.03 12.2124 44.7528 7.7634 55.9375 7.75C73.7491 7.75 88.7172 17.2928 95.0031 32.6491C95.2574 33.2681 95.69 33.7975 96.2458 34.1701C96.8017 34.5427 97.4558 34.7417 98.125 34.7417C98.7942 34.7417 99.4483 34.5427 100.004 34.1701C100.56 33.7975 100.993 33.2681 101.247 32.6491C107.533 17.2928 122.501 7.75 140.312 7.75C151.497 7.7634 162.22 12.2124 170.129 20.1212C178.038 28.03 182.487 38.7528 182.5 49.9375C182.5 98.875 109.938 142.294 98.125 149.011Z" fill="black"/>
<path d="M124.125 48.625H135.125V37.625C135.125 37.0946 135.336 36.5859 135.711 36.2108C136.086 35.8357 136.595 35.625 137.125 35.625H145.125C145.655 35.625 146.164 35.8357 146.539 36.2108C146.914 36.5859 147.125 37.0946 147.125 37.625V48.625H158.125C158.655 48.625 159.164 48.8357 159.539 49.2108C159.914 49.5859 160.125 50.0946 160.125 50.625V58.625C160.125 59.1554 159.914 59.6641 159.539 60.0392C159.164 60.4143 158.655 60.625 158.125 60.625H147.125V71.625C147.125 72.1554 146.914 72.6641 146.539 73.0392C146.164 73.4143 145.655 73.625 145.125 73.625H137.125C136.595 73.625 136.086 73.4143 135.711 73.0392C135.336 72.6641 135.125 72.1554 135.125 71.625V60.625H124.125C123.595 60.625 123.086 60.4143 122.711 60.0392C122.336 59.6641 122.125 59.1554 122.125 58.625V50.625C122.125 50.0946 122.336 49.5859 122.711 49.2108C123.086 48.8357 123.595 48.625 124.125 48.625Z" stroke="black" stroke-width="4" stroke-linecap="round" stroke-linejoin="round"/>
</svg>
