<svg width="18" height="13" viewBox="0 0 18 13" fill="none" xmlns="http://www.w3.org/2000/svg">
<path d="M0 2.0295V4H2.814L0 2.0295ZM2.332 13H6.5V10.0815L2.332 13ZM11.5 10.082V13H15.6675L11.5 10.082ZM0 9V10.9705L2.815 9H0ZM15.6685 0H11.5V2.9185L15.6685 0ZM18 10.971V9H15.1845L18 10.971ZM18 4V2.0295L15.1855 4H18ZM6.5 0H2.332L6.5 2.9185V0Z" fill="#00247D"/>
<path d="M12.5701 9L17.4261 12.4005C17.6633 12.1562 17.8337 11.8551 17.9211 11.526L14.3136 9H12.5701ZM6.50011 9H5.42961L0.574113 12.4C0.834613 12.665 1.16861 12.8545 1.54311 12.9425L6.50011 9.4715V9ZM11.5001 4H12.5706L17.4261 0.599995C17.1611 0.331133 16.8253 0.143008 16.4576 0.0574951L11.5001 3.5285V4ZM5.42961 4L0.574113 0.599995C0.33709 0.844482 0.166521 1.14552 0.0786133 1.4745L3.68611 4H5.42961Z" fill="#CF1B2B"/>
<path d="M18 8H10.5V13H11.5V10.082L15.6675 13H16C16.2656 13 16.5286 12.947 16.7735 12.8441C17.0183 12.7411 17.2402 12.5903 17.426 12.4005L12.57 9H14.3135L17.921 11.526C17.9675 11.3575 18 11.183 18 11V10.971L15.1845 9H18V8ZM0 8V9H2.815L0 10.9705V11C0 11.5455 0.2195 12.039 0.574 12.4L5.4295 9H6.5V9.4715L1.543 12.942C1.69 12.977 1.842 13 2 13H2.332L6.5 10.0815V13H7.5V8H0ZM18 2C18.0003 1.47599 17.7941 0.972977 17.426 0.6L12.5705 4H11.5V3.5285L16.4575 0.0575001C16.3077 0.0207637 16.1542 0.00146903 16 1.89189e-07H15.6685L11.5 2.9185V1.89189e-07H10.5V5H18V4H15.1855L18 2.0295V2ZM6.5 1.89189e-07V2.9185L2.332 1.89189e-07H2C1.73431 -0.000115586 1.47128 0.0529067 1.22639 0.155948C0.981495 0.258989 0.759682 0.409967 0.574 0.6L5.4295 4H3.686L0.0785 1.4745C0.0288901 1.64536 0.00248671 1.82211 0 2L0 2.0295L2.814 4H0V5H7.5V1.89189e-07H6.5Z" fill="#EEEEEE"/>
<path d="M10.5 5V0H7.5V5H0V8H7.5V13H10.5V8H18V5H10.5Z" fill="#CF1B2B"/>
</svg>
