<svg width="201" height="147" viewBox="0 0 201 147" fill="none" xmlns="http://www.w3.org/2000/svg">
<circle cx="127.5" cy="73.5" r="73.5" fill="#FDE68A"/>
<path d="M13.5929 141.667C9.72125 141.667 6.48925 140.371 3.89692 137.778C1.29897 135.18 0 131.945 0 128.074V45.8429C0 41.9712 1.29897 38.7392 3.89692 36.1469C6.48925 33.549 9.72125 32.25 13.5929 32.25H50.5V20.5929C50.5 16.7212 51.799 13.4892 54.3969 10.8969C56.9893 8.29897 60.2213 7 64.0929 7H87.4071C91.2788 7 94.5136 8.29897 97.1115 10.8969C99.7038 13.4892 101 16.7212 101 20.5929V32.25H137.907C141.779 32.25 145.011 33.549 147.603 36.1469C150.201 38.7392 151.5 41.9712 151.5 45.8429V128.074C151.5 131.945 150.204 135.177 147.612 137.77C145.014 140.368 141.779 141.667 137.907 141.667H13.5929ZM13.5929 133.25H137.907C139.198 133.25 140.384 132.711 141.467 131.634C142.545 130.551 143.083 129.364 143.083 128.074V45.8429C143.083 44.5524 142.545 43.3656 141.467 42.2827C140.384 41.2053 139.198 40.6667 137.907 40.6667H13.5929C12.3024 40.6667 11.1156 41.2053 10.0327 42.2827C8.95533 43.3656 8.41667 44.5524 8.41667 45.8429V128.074C8.41667 129.364 8.95533 130.551 10.0327 131.634C11.1156 132.711 12.3024 133.25 13.5929 133.25ZM58.9167 32.25H92.5833V20.5929C92.5833 19.3024 92.0447 18.1156 90.9673 17.0327C89.8844 15.9553 88.6976 15.4167 87.4071 15.4167H64.0929C62.8024 15.4167 61.6156 15.9553 60.5327 17.0327C59.4553 18.1156 58.9167 19.3024 58.9167 20.5929V32.25Z" fill="black"/>
</svg>
