<svg width="179" height="181" viewBox="0 0 179 181" fill="none" xmlns="http://www.w3.org/2000/svg">
<circle cx="105.5" cy="73.5" r="73.5" fill="#FDE68A"/>
<path d="M8.31299 89.9453H142.002V162.854C142.002 166.478 140.562 169.953 138 172.515C135.438 175.077 131.963 176.516 128.34 176.516H21.975C18.3516 176.516 14.8766 175.077 12.3145 172.515C9.75238 169.953 8.31299 166.478 8.31299 162.854V89.9453Z" stroke="black" stroke-width="7" stroke-linecap="round" stroke-linejoin="round"/>
<path d="M95.4919 131.689L66.5528 113.532C66.2772 113.359 65.96 113.262 65.6344 113.253C65.3088 113.244 64.9867 113.322 64.7017 113.48C64.4167 113.638 64.1793 113.869 64.0141 114.15C63.849 114.431 63.7623 114.751 63.763 115.076V151.389C63.7623 151.715 63.849 152.035 64.0141 152.315C64.1793 152.596 64.4167 152.828 64.7017 152.985C64.9867 153.143 65.3088 153.221 65.6344 153.212C65.96 153.203 66.2772 153.107 66.5528 152.933L95.4919 134.777C95.7531 134.613 95.9684 134.385 96.1176 134.115C96.2668 133.845 96.3451 133.541 96.3451 133.233C96.3451 132.924 96.2668 132.621 96.1176 132.351C95.9684 132.08 95.7531 131.853 95.4919 131.689ZM123.431 40.3322L119.493 56.247L100.005 59.8313L103.943 43.9165L83.6276 47.6537L79.6852 63.5722L60.1973 67.1565L64.1397 51.2417L43.8201 54.9789L39.8814 70.8937L20.3935 74.4817L24.3321 58.5669L7.73107 61.6216C7.14256 61.7293 6.58107 61.952 6.07874 62.277C5.57641 62.6019 5.14309 63.0228 4.80358 63.5154C4.46408 64.008 4.22506 64.5628 4.1002 65.1479C3.97534 65.733 3.96709 66.337 4.07592 66.9253L8.31291 89.949L139.794 65.7541L135.557 42.7305C135.449 42.1422 135.226 41.581 134.9 41.0789C134.575 40.5768 134.155 40.1437 133.662 39.8042C133.17 39.4648 132.615 39.2257 132.03 39.1007C131.445 38.9756 130.841 38.967 130.253 39.0753L123.431 40.3322Z" stroke="black" stroke-width="7" stroke-linecap="round" stroke-linejoin="round"/>
</svg>
