<svg width="19" height="15" viewBox="0 0 19 15" fill="none" xmlns="http://www.w3.org/2000/svg">
<path d="M19 12.25C19 12.8099 18.7776 13.3469 18.3817 13.7428C17.9858 14.1387 17.4488 14.3611 16.8889 14.3611H2.11111C1.55121 14.3611 1.01424 14.1387 0.61833 13.7428C0.22242 13.3469 0 12.8099 0 12.25V2.75003C0 2.19013 0.22242 1.65316 0.61833 1.25725C1.01424 0.861336 1.55121 0.638916 2.11111 0.638916H16.8889C17.4488 0.638916 17.9858 0.861336 18.3817 1.25725C18.7776 1.65316 19 2.19013 19 2.75003V12.25Z" fill="#006600"/>
<path d="M16.889 0.638916H7.91675V14.3611H16.889C17.4489 14.3611 17.9858 14.1387 18.3818 13.7428C18.7777 13.3469 19.0001 12.8099 19.0001 12.25V2.75003C19.0001 2.19013 18.7777 1.65316 18.3818 1.25725C17.9858 0.861336 17.4489 0.638916 16.889 0.638916Z" fill="#D52B1E"/>
<path d="M7.91656 3.2778C6.79676 3.2778 5.72282 3.72264 4.931 4.51446C4.13918 5.30628 3.69434 6.38022 3.69434 7.50002C3.69434 8.61983 4.13918 9.69377 4.931 10.4856C5.72282 11.2774 6.79676 11.7222 7.91656 11.7222C9.03636 11.7222 10.1103 11.2774 10.9021 10.4856C11.6939 9.69377 12.1388 8.61983 12.1388 7.50002C12.1388 6.38022 11.6939 5.30628 10.9021 4.51446C10.1103 3.72264 9.03636 3.2778 7.91656 3.2778ZM4.69025 5.70241L5.53575 6.54791L4.23742 7.19708C4.27932 6.67213 4.43376 6.16235 4.69025 5.70241ZM4.23742 7.80244L6.55964 8.96725L5.13147 9.91936L5.13886 9.93044C4.61736 9.33651 4.30124 8.59026 4.23742 7.80244ZM7.38878 11.1522C6.90497 11.0832 6.43985 10.9181 6.02078 10.6667H7.38878V11.1522ZM7.38878 10.1389H5.7532L7.38878 9.04852V10.1389ZM7.38878 8.41414L7.06842 8.62788L4.81217 7.50002L5.92895 6.94163L7.38878 8.40094V8.41414ZM7.38878 7.65466L5.51886 5.78475L7.38878 6.09613V7.65466ZM7.38878 5.54777L5.04967 5.17147C5.63496 4.45154 6.47026 3.97886 7.38878 3.8478V5.54777ZM11.1429 5.70241C11.3994 6.16251 11.5539 6.67247 11.5957 7.19761L10.2974 6.54844L11.1429 5.70241ZM8.44434 3.8478C9.36279 3.97906 10.198 4.4517 10.7834 5.17147L8.44434 5.54777V3.8478ZM8.44434 6.09613L10.3143 5.78422L8.44434 7.65466V6.09613ZM8.44434 8.40094L9.90364 6.94163L11.0209 7.50002L8.76522 8.62788L8.44434 8.41414V8.40094ZM8.44434 11.1522V10.6667H9.81234C9.39326 10.9181 8.92815 11.0832 8.44434 11.1522ZM8.44434 10.1389V9.04852L10.0799 10.1389H8.44434ZM10.6948 9.93044L10.7022 9.91936L9.274 8.96725L11.5962 7.80244C11.5319 8.59014 11.2159 9.33624 10.6948 9.93044Z" fill="#FFCC4D"/>
<path d="M5.80566 4.86115V8.55559C5.80566 9.11549 6.02808 9.65246 6.42399 10.0484C6.8199 10.4443 7.35687 10.6667 7.91678 10.6667C8.47668 10.6667 9.01365 10.4443 9.40956 10.0484C9.80547 9.65246 10.0279 9.11549 10.0279 8.55559V4.86115H5.80566Z" fill="#D52B1E"/>
<path d="M6.33325 5.38892V8.55558C6.33325 8.97551 6.50007 9.37824 6.797 9.67517C7.09393 9.9721 7.49666 10.1389 7.91659 10.1389C8.33651 10.1389 8.73924 9.9721 9.03617 9.67517C9.3331 9.37824 9.49992 8.97551 9.49992 8.55558V5.38892H6.33325Z" fill="white"/>
<path d="M6.86108 6.97226H8.9722V8.02782H6.86108V6.97226Z" fill="#829ACD"/>
<path d="M7.38892 6.44447H8.44447V8.55558H7.38892V6.44447Z" fill="#829ACD"/>
<path d="M6.33325 6.97225H6.86103V8.0278H6.33325V6.97225ZM7.38881 6.97225H8.44436V8.0278H7.38881V6.97225ZM8.97214 6.97225H9.49992V8.0278H8.97214V6.97225ZM7.38881 8.55558H8.44436V9.61114H7.38881V8.55558ZM7.38881 5.38892H8.44436V6.44447H7.38881V5.38892Z" fill="#003399"/>
</svg>
