<svg width="17" height="17" viewBox="0 0 17 17" fill="none" xmlns="http://www.w3.org/2000/svg">
<path fill-rule="evenodd" clip-rule="evenodd" d="M10.1902 8.73623C10.0925 8.45999 9.91155 8.22082 9.6723 8.05167C9.43306 7.88251 9.14726 7.79167 8.85425 7.79167V7.4375H8.14591V7.79167C7.77019 7.79167 7.40986 7.94092 7.14418 8.2066C6.8785 8.47228 6.72925 8.83261 6.72925 9.20833C6.72925 9.58406 6.8785 9.94439 7.14418 10.2101C7.40986 10.4757 7.77019 10.625 8.14591 10.625V12.0417C7.83779 12.0417 7.57535 11.8451 7.4776 11.5696C7.4631 11.5245 7.4397 11.4828 7.4088 11.4469C7.37789 11.411 7.34011 11.3817 7.29767 11.3607C7.25524 11.3396 7.20902 11.3273 7.16175 11.3245C7.11448 11.3217 7.06712 11.3283 7.02247 11.3441C6.97782 11.3599 6.93678 11.3844 6.9018 11.4163C6.86681 11.4483 6.83857 11.4869 6.81876 11.5299C6.79895 11.5729 6.78797 11.6194 6.78647 11.6668C6.78496 11.7141 6.79296 11.7613 6.81 11.8054C6.90769 12.0817 7.08862 12.3208 7.32786 12.49C7.56711 12.6592 7.85291 12.75 8.14591 12.75V13.1042H8.85425V12.75C9.22997 12.75 9.59031 12.6007 9.85598 12.3351C10.1217 12.0694 10.2709 11.7091 10.2709 11.3333C10.2709 10.9576 10.1217 10.5973 9.85598 10.3316C9.59031 10.0659 9.22997 9.91667 8.85425 9.91667V8.5C9.00074 8.49996 9.14363 8.54534 9.26326 8.62989C9.38288 8.71444 9.47335 8.834 9.52221 8.9721C9.55349 9.06068 9.61867 9.1332 9.70342 9.17372C9.74539 9.19378 9.79089 9.20538 9.83734 9.20786C9.88378 9.21033 9.93026 9.20363 9.97412 9.18815C10.018 9.17266 10.0584 9.14868 10.093 9.11759C10.1275 9.0865 10.1557 9.0489 10.1757 9.00693C10.1958 8.96497 10.2074 8.91946 10.2099 8.87301C10.2123 8.82657 10.2057 8.78009 10.1902 8.73623ZM8.14591 8.5C7.95805 8.5 7.77789 8.57463 7.64505 8.70747C7.51221 8.8403 7.43758 9.02047 7.43758 9.20833C7.43758 9.39619 7.51221 9.57636 7.64505 9.7092C7.77789 9.84204 7.95805 9.91667 8.14591 9.91667V8.5ZM8.85425 12.0417C9.04211 12.0417 9.22228 11.967 9.35512 11.8342C9.48795 11.7014 9.56258 11.5212 9.56258 11.3333C9.56258 11.1455 9.48795 10.9653 9.35512 10.8325C9.22228 10.6996 9.04211 10.625 8.85425 10.625V12.0417Z" fill="#666666"/>
<path fill-rule="evenodd" clip-rule="evenodd" d="M4.65843 3.05327C5.52755 2.62792 6.95343 2.125 8.51389 2.125C10.0418 2.125 11.4301 2.60702 12.2946 3.02671L12.3435 3.05044C12.6042 3.17935 12.8145 3.30119 12.9626 3.4L11.6543 5.3125C14.6704 8.39588 17.0001 14.8739 8.51389 14.8739C0.0276992 14.8739 2.29472 8.51346 5.33701 5.3125L4.03722 3.4C4.13745 3.33448 4.2646 3.25833 4.41618 3.17758C4.49126 3.13721 4.57201 3.09542 4.65843 3.05327ZM10.8135 5.28735L11.8608 3.75629C10.8868 3.82642 9.72797 4.05521 8.61235 4.37821C7.81547 4.60842 6.93005 4.57335 6.11016 4.42213C5.90355 4.38382 5.69836 4.33822 5.49497 4.28542L6.17497 5.28665C7.63237 5.8055 9.35574 5.8055 10.8135 5.28735ZM5.76591 5.88979C7.47122 6.54854 9.52078 6.54854 11.2261 5.88908C11.9379 6.63945 12.5334 7.49218 12.9927 8.4189C13.4715 9.39569 13.7322 10.3721 13.6897 11.2136C13.6486 12.0257 13.3291 12.7195 12.5996 13.2352C11.8392 13.7725 10.5603 14.1656 8.51353 14.1656C6.46468 14.1656 5.17976 13.7792 4.41228 13.248C3.67739 12.739 3.35474 12.0544 3.30905 11.2533C3.26124 10.421 3.51624 9.44952 3.9933 8.466C4.44841 7.52817 5.08343 6.6254 5.76591 5.88979ZM5.35862 3.51192C5.64195 3.59621 5.93803 3.66952 6.23837 3.72512C6.99982 3.86537 7.76341 3.88592 8.41508 3.69715C9.17448 3.47591 9.94687 3.30192 10.7278 3.17617C10.0761 2.97996 9.31395 2.83333 8.51353 2.83333C7.29343 2.83333 6.15549 3.17369 5.35862 3.51192Z" fill="#666666"/>
</svg>
