<svg width="512" height="501" viewBox="0 0 512 501" fill="none" xmlns="http://www.w3.org/2000/svg">
<circle cx="278.5" cy="267.5" r="233.5" fill="#FDE68A"/>
<circle cx="233.5" cy="233.5" r="226.5" stroke="black" stroke-width="14"/>
<path d="M112 261C112 261 143.5 352 239 350.5C334.5 349 357 261 357 261" stroke="black" stroke-width="11" stroke-linecap="round"/>
<path d="M164.5 170C173.06 170 180 162.837 180 154C180 145.163 173.06 138 164.5 138C155.94 138 149 145.163 149 154C149 162.837 155.94 170 164.5 170Z" fill="black"/>
<path d="M303.5 170C312.06 170 319 162.837 319 154C319 145.163 312.06 138 303.5 138C294.94 138 288 145.163 288 154C288 162.837 294.94 170 303.5 170Z" fill="black"/>
</svg>
