<svg width="16" height="16" viewBox="0 0 16 16" fill="none" xmlns="http://www.w3.org/2000/svg">
<path d="M2.4 6H13.6M2.4 10H13.6M2 8C2 8.78793 2.15519 9.56815 2.45672 10.2961C2.75825 11.0241 3.20021 11.6855 3.75736 12.2426C4.31451 12.7998 4.97595 13.2417 5.7039 13.5433C6.43185 13.8448 7.21207 14 8 14C8.78793 14 9.56815 13.8448 10.2961 13.5433C11.0241 13.2417 11.6855 12.7998 12.2426 12.2426C12.7998 11.6855 13.2417 11.0241 13.5433 10.2961C13.8448 9.56815 14 8.78793 14 8C14 6.4087 13.3679 4.88258 12.2426 3.75736C11.1174 2.63214 9.5913 2 8 2C6.4087 2 4.88258 2.63214 3.75736 3.75736C2.63214 4.88258 2 6.4087 2 8Z" stroke="#666666" stroke-linecap="round" stroke-linejoin="round"/>
<path d="M7.66677 2C6.54367 3.79974 5.94824 5.87858 5.94824 8C5.94824 10.1214 6.54367 12.2003 7.66677 14M8.33344 2C9.45655 3.79974 10.052 5.87858 10.052 8C10.052 10.1214 9.45655 12.2003 8.33344 14" stroke="#666666" stroke-linecap="round" stroke-linejoin="round"/>
</svg>
